<?xml version="1.0" standalone="no"?>
<!DOCTYPE svg PUBLIC "-//W3C//DTD SVG 20010904//EN"
 "http://www.w3.org/TR/2001/REC-SVG-20010904/DTD/svg10.dtd">
<svg version="1.0" xmlns="http://www.w3.org/2000/svg"
 width="80.000000pt" height="80.000000pt" viewBox="0 0 80.000000 80.000000"
 preserveAspectRatio="xMidYMid meet">
<metadata>
Created by potrace 1.16, written by Peter Selinger 2001-2019
</metadata>
<g transform="translate(0.000000,80.000000) scale(0.100000,-0.100000)"
fill="#000000" stroke="none">
<path d="M533 743 c-19 -4 -21 -7 -11 -23 9 -15 1 -58 -40 -220 -56 -217 -89
-304 -130 -343 -38 -35 -79 -43 -105 -20 -11 10 -17 12 -13 6 10 -18 -5 -16
-32 3 -12 8 -20 19 -17 24 3 4 -1 23 -9 41 -7 19 -12 41 -10 49 3 8 -1 5 -7
-7 -7 -13 -21 -23 -31 -23 -18 0 -18 -1 2 -22 18 -19 25 -38 21 -60 0 -4 6 -5
14 -2 8 4 15 2 15 -4 0 -18 80 -43 117 -36 40 8 110 74 120 114 3 14 9 27 12
30 4 3 13 27 22 55 15 49 15 50 52 47 54 -5 101 14 140 57 74 82 87 193 32
265 -16 21 -34 35 -42 32 -7 -3 -13 -1 -13 4 0 6 -4 10 -10 10 -5 0 -10 -6
-10 -14 0 -16 -19 -25 -37 -19 -20 7 -16 51 5 56 22 6 -5 6 -35 0z m99 -70 c9
-10 18 -25 21 -33 4 -11 6 -9 6 6 1 11 -5 26 -11 33 -11 11 -10 12 1 6 20 -11
41 -69 41 -113 0 -48 -51 -153 -88 -182 -20 -16 -37 -20 -76 -18 -44 3 -51 6
-48 23 1 11 3 31 3 45 1 14 4 30 8 35 7 10 18 44 46 146 13 47 19 56 34 52 10
-3 22 0 25 6 10 16 21 14 38 -6z"/>
</g>
</svg>
